<svg xmlns="http://www.w3.org/2000/svg" width="682" height="1339"><g data-name="Group 939"><path fill="#7d52c3" d="M-.001 0h682v1339h-682z" data-name="Group 84"/><path data-name="Path 466" d="M161.177 806.689v10.538h12.138l-.042 3.234h-12.1v13.066h-3.612v-30.24h18.06l-.042 3.4zm18.27-.966a2.551 2.551 0 0 1 .735-1.848 2.445 2.445 0 0 1 1.827-.756 2.514 2.514 0 0 1 1.848.756 2.514 2.514 0 0 1 .756 1.848 2.445 2.445 0 0 1-.756 1.827 2.551 2.551 0 0 1-1.848.735 2.48 2.48 0 0 1-1.827-.735 7.623 7.623 0 0 1-.735-1.823zm4.326 7.35v20.454h-3.486v-20.454zm15.162-.252a9.327 9.327 0 0 1 2.184.252v3.192a10.063 10.063 0 0 0-2.184-.252 5.245 5.245 0 0 0-4.116 1.638 6.549 6.549 0 0 0-1.47 4.536l-3.486 11.34h-3.486v-20.412h3.234l.168 2.562a4.521 4.521 0 0 1 2.205-2.121 7.916 7.916 0 0 1 6.951-.735zm23.814 12.012h-16.506a6.544 6.544 0 0 0 2.079 4.641 6.672 6.672 0 0 0 4.515 1.575 6.719 6.719 0 0 0 3.763-1.029 6.653 6.653 0 0 0 2.415-2.835l2.9 1.218a9.2 9.2 0 0 1-3.615 4.158 10.379 10.379 0 0 1-5.547 1.466 10.39 10.39 0 0 1-4.011-.756 8.778 8.778 0 0 1-3.129-2.163 9.835 9.835 0 0 1-2.013-3.381 12.763 12.763 0 0 1-.714-4.368 12.813 12.813 0 0 1 .714-4.347 10.259 10.259 0 0 1 2.016-3.444 8.943 8.943 0 0 1 3.15-2.247 10.279 10.279 0 0 1 4.116-.8 10.347 10.347 0 0 1 4.032.756 8.822 8.822 0 0 1 3.108 2.163 9.8 9.8 0 0 1 2.016 3.4 13.075 13.075 0 0 1 .714 4.431zm-3.57-2.562a7.38 7.38 0 0 0-1.827-5.061 6.022 6.022 0 0 0-4.515-1.743 6.194 6.194 0 0 0-4.578 1.764 7.7 7.7 0 0 0-2.016 5.04zm49.056-18.944v30.2h-3.612v-22.092l-8.946 22.092h-3.486l-8.991-22.008v22.008h-3.486v-30.24h3.486l10.752 26 10.668-26zm15.665 9.2a10.607 10.607 0 0 1 4.221.819 9.68 9.68 0 0 1 3.279 2.268 10.306 10.306 0 0 1 2.121 3.423 11.76 11.76 0 0 1 .756 4.242 11.76 11.76 0 0 1-.756 4.242 10.306 10.306 0 0 1-2.121 3.423 9.68 9.68 0 0 1-3.278 2.268 10.607 10.607 0 0 1-4.222.815 10.607 10.607 0 0 1-4.22-.815 9.68 9.68 0 0 1-3.28-2.268 10.306 10.306 0 0 1-2.121-3.423 11.76 11.76 0 0 1-.756-4.242 11.76 11.76 0 0 1 .756-4.242 10.306 10.306 0 0 1 2.121-3.423 9.68 9.68 0 0 1 3.276-2.268 10.607 10.607 0 0 1 4.224-.819zm0 18.4a6.34 6.34 0 0 0 5-2.142 8.009 8.009 0 0 0 1.89-5.5 7.948 7.948 0 0 0-1.89-5.46 6.285 6.285 0 0 0-5-2.184 6.238 6.238 0 0 0-4.956 2.184 7.948 7.948 0 0 0-1.89 5.46 8.009 8.009 0 0 0 1.89 5.5 6.293 6.293 0 0 0 4.956 2.142zm33.18-9.912v12.512h-3.444v-12.012q0-3.192-1.554-4.494a5.624 5.624 0 0 0-3.738-1.344 5.785 5.785 0 0 0-4.305 1.68 6.289 6.289 0 0 0-1.659 4.62v11.508h-3.444v-20.412h3.234l.126 2.73a6.418 6.418 0 0 1 2.688-2.394 8.9 8.9 0 0 1 4.033-.882 8.113 8.113 0 0 1 5.838 2.121q2.226 2.121 2.226 6.363zm5.167-15.288a2.551 2.551 0 0 1 .735-1.848 2.445 2.445 0 0 1 1.827-.756 2.514 2.514 0 0 1 1.848.756 2.514 2.514 0 0 1 .756 1.848 2.445 2.445 0 0 1-.756 1.827 2.551 2.551 0 0 1-1.848.735 2.48 2.48 0 0 1-1.827-.735 2.48 2.48 0 0 1-.735-1.827zm4.326 7.35v20.45h-3.486v-20.454zm15.54 2.85h-4.032v17.6h-3.4v-17.6h-4.032v-2.856h4.032v-6.424h3.4v6.426h4.032zm12.852-3.4a10.607 10.607 0 0 1 4.221.819 9.68 9.68 0 0 1 3.276 2.268 10.306 10.306 0 0 1 2.121 3.423 11.76 11.76 0 0 1 .756 4.242 11.76 11.76 0 0 1-.756 4.242 10.306 10.306 0 0 1-2.121 3.423 9.68 9.68 0 0 1-3.276 2.268 10.607 10.607 0 0 1-4.221.815 10.607 10.607 0 0 1-4.221-.815 9.68 9.68 0 0 1-3.276-2.268 10.306 10.306 0 0 1-2.121-3.423 11.76 11.76 0 0 1-.756-4.242 11.76 11.76 0 0 1 .756-4.242 10.306 10.306 0 0 1 2.121-3.423 9.68 9.68 0 0 1 3.276-2.268 10.607 10.607 0 0 1 4.221-.819zm0 18.4a6.34 6.34 0 0 0 5-2.142 8.009 8.009 0 0 0 1.89-5.5 7.948 7.948 0 0 0-1.89-5.46 6.285 6.285 0 0 0-5-2.184 6.238 6.238 0 0 0-4.956 2.184 7.948 7.948 0 0 0-1.89 5.46 8.009 8.009 0 0 0 1.89 5.5 6.293 6.293 0 0 0 4.956 2.142zm24.066-18.1a9.327 9.327 0 0 1 2.184.252v3.192a10.063 10.063 0 0 0-2.184-.252 5.245 5.245 0 0 0-4.116 1.638 6.549 6.549 0 0 0-1.47 4.536v11.334h-3.486v-20.412h3.234l.168 2.562a4.52 4.52 0 0 1 2.205-2.121 7.916 7.916 0 0 1 3.465-.735zm5.67-7.1a2.551 2.551 0 0 1 .735-1.848 2.445 2.445 0 0 1 1.827-.756 2.514 2.514 0 0 1 1.848.756 2.514 2.514 0 0 1 .756 1.848 2.445 2.445 0 0 1-.756 1.827 2.551 2.551 0 0 1-1.848.735 2.48 2.48 0 0 1-1.827-.735 2.48 2.48 0 0 1-.736-1.827zm4.326 7.35-.001 20.45h-3.485v-20.454zm24.36 7.938-3.486 12.512h.042v-12.012q0-3.192-1.554-4.494a5.624 5.624 0 0 0-3.738-1.344 5.785 5.785 0 0 0-4.305 1.68 6.289 6.289 0 0 0-1.659 4.62v11.508h-3.444v-20.412h3.234l.126 2.73a6.418 6.418 0 0 1 2.688-2.394 8.9 8.9 0 0 1 4.032-.882 8.113 8.113 0 0 1 5.838 2.121q2.226 2.121 2.226 6.363zm24.444 16a4.928 4.928 0 0 1-2.94 4.788 17.576 17.576 0 0 1-7.691 1.468 18.206 18.206 0 0 1-7.056-1.218 4.188 4.188 0 0 1-2.814-4.158 4.686 4.686 0 0 1 2.94-4.41 3.943 3.943 0 0 1-1.47-1.365 3.569 3.569 0 0 1-.546-1.953 4.337 4.337 0 0 1 .672-2.31 3.524 3.524 0 0 1 2.142-1.512 7.476 7.476 0 0 1-2.562-5.8 7.9 7.9 0 0 1 .651-3.234 7.649 7.649 0 0 1 1.806-2.541 8.049 8.049 0 0 1 2.793-1.659 10.624 10.624 0 0 1 3.617-.584 10.073 10.073 0 0 1 4.788 1.134 4.8 4.8 0 0 1 1.89-1.848 5.73 5.73 0 0 1 2.814-.672l.63.042v2.982a3.019 3.019 0 0 0-.672-.042 3.693 3.693 0 0 0-2.73 1.05 7.542 7.542 0 0 1 2.058 5.376 7.974 7.974 0 0 1-.63 3.213 7.237 7.237 0 0 1-1.785 2.5 8.266 8.266 0 0 1-2.772 1.638 10.445 10.445 0 0 1-3.591.588 11.079 11.079 0 0 1-3.948-.714 2.5 2.5 0 0 0-1.659.483 1.6 1.6 0 0 0-.566 1.28 1.627 1.627 0 0 0 .525 1.218 2.4 2.4 0 0 0 1.7.5h7.56a7.47 7.47 0 0 1 5.061 1.558 5.284 5.284 0 0 1 1.785 4.2zm-15.96-16.424a4.928 4.928 0 0 0 1.449 3.636 5.363 5.363 0 0 0 3.969 1.449 5.494 5.494 0 0 0 4.032-1.449 4.891 4.891 0 0 0 1.47-3.633 5.135 5.135 0 0 0-1.47-3.759 5.349 5.349 0 0 0-3.99-1.491 5.349 5.349 0 0 0-3.99 1.491 5.135 5.135 0 0 0-1.47 3.756zm12.558 16.464a2.488 2.488 0 0 0-1.029-2.163 4.8 4.8 0 0 0-2.835-.735h-7.644a3.058 3.058 0 0 0-1.932 1.07 2.983 2.983 0 0 0-.63 1.869 2.542 2.542 0 0 0 .5 1.638 3.3 3.3 0 0 0 1.428.987 8.436 8.436 0 0 0 2.2.483q1.281.126 2.835.126a15.989 15.989 0 0 0 5.278-.671 2.557 2.557 0 0 0 1.829-2.604zm36.078-11.3h-13.314l-2.814 7.772h-3.654l11.046-30.24h4.158l11.13 30.24h-3.78zm-1.092-3.024-5.46-15.372-5.628 15.372zm22.092 11.296a9.684 9.684 0 0 1-4.431-1 7.008 7.008 0 0 1-3.045-2.9v12.43h-3.276v-29.484h2.982l.21 3.444a6.8 6.8 0 0 1 2.919-2.94 9.573 9.573 0 0 1 4.6-1.05 10.1 10.1 0 0 1 4.032.777 8.64 8.64 0 0 1 3.066 2.184 9.9 9.9 0 0 1 1.953 3.4 13.3 13.3 0 0 1 .693 4.389 13.3 13.3 0 0 1-.693 4.389 9.718 9.718 0 0 1-1.974 3.4 8.9 8.9 0 0 1-3.066 2.184 9.842 9.842 0 0 1-3.97.777zm6.216-10.752a8.206 8.206 0 0 0-1.806-5.544 6.1 6.1 0 0 0-4.872-2.1 6.193 6.193 0 0 0-4.956 2.1 8.206 8.206 0 0 0-1.806 5.544 9.848 9.848 0 0 0 .462 3.087 6.873 6.873 0 0 0 1.344 2.415 6.174 6.174 0 0 0 2.142 1.575 6.782 6.782 0 0 0 2.814.567 6.534 6.534 0 0 0 2.751-.567 6.226 6.226 0 0 0 2.121-1.575 6.873 6.873 0 0 0 1.344-2.415 9.848 9.848 0 0 0 .462-3.083zm18.984 10.752a9.684 9.684 0 0 1-4.431-1 7.008 7.008 0 0 1-3.045-2.9v12.43h-3.276v-29.484h2.982l.21 3.444a6.8 6.8 0 0 1 2.919-2.94 9.573 9.573 0 0 1 4.6-1.05 10.1 10.1 0 0 1 4.032.777 8.64 8.64 0 0 1 3.066 2.184 9.9 9.9 0 0 1 1.953 3.4 13.3 13.3 0 0 1 .693 4.389 13.3 13.3 0 0 1-.693 4.389 9.718 9.718 0 0 1-1.974 3.4 8.9 8.9 0 0 1-3.066 2.184 9.842 9.842 0 0 1-3.97.777zm6.216-10.752a8.206 8.206 0 0 0-1.806-5.544 6.1 6.1 0 0 0-4.872-2.1 6.193 6.193 0 0 0-4.956 2.1 8.206 8.206 0 0 0-1.806 5.544 9.848 9.848 0 0 0 .462 3.087 6.873 6.873 0 0 0 1.344 2.415 6.174 6.174 0 0 0 2.142 1.575 6.782 6.782 0 0 0 2.814.567 6.534 6.534 0 0 0 2.755-.563 6.226 6.226 0 0 0 2.121-1.575 6.873 6.873 0 0 0 1.344-2.415 9.848 9.848 0 0 0 .458-3.087z" fill="#fff"/><path d="m343.717 596.517 2.862-3.323a158.932 158.932 0 0 0 13.618-17.852 11.475 11.475 0 0 1-.606 10.994c-1.719 2.288-5.269 6.548-7.066 8.686-.574.683-.673.745-1.894.916a59.172 59.172 0 0 0-5.865 1.128c-1.245.305-1.934.44-1.049-.549zm14.752-1.335q1.123-1.351 2.236-2.749c1.387-1.77 3.836-4.969 5.119-6.838a11.455 11.455 0 0 1 .745 8.561l-1.775 2.236c-.745.916-1.035.818-2 .575-1.268-.347-2.588-.606-3.9-.849-.9-.155-1-.233-.414-.963zm-79.139-2.9a117.681 117.681 0 0 0-13.08 21.626 74.186 74.186 0 0 0-5.316 16.377 69.76 69.76 0 0 0-.543 21.554 78.311 78.311 0 0 0 23.22 46.658 82.762 82.762 0 0 0 114.994 0 78.187 78.187 0 0 0 23.6-50.727 69.418 69.418 0 0 0-.414-14.317 78.565 78.565 0 0 0-10.125-27.827 178.574 178.574 0 0 0-22.941-30.332 163.614 163.614 0 0 1-18.2-24.582c-1.035-1.775-2.045-3.561-2.951-5.347-.606 22.967 7.009 32.149 17.64 45.033 2.863 3.478 5.974 7.2 9.172 11.527a102.5 102.5 0 0 1 7.066 10.161c.238.445.518.906.745 1.4a52.238 52.238 0 0 1 5.73 33.785 74.861 74.861 0 0 0-4.2-15.467 112.455 112.455 0 0 0-8.962-17.938q-1.776-2.8-3.737-5.461c-2.588-3.52-5.8-7.557-8.53-10.922q-1.211-1.491-2.428-2.95c-9.975-12.024-17.485-21.1-18.966-39.251a89.7 89.7 0 0 1 1.946-27.9 23.085 23.085 0 0 1 4.477-9.167 64.873 64.873 0 0 0 1.211 11.336h.062q.067.517.15 1.035.357 1.636.745 3.2a64.7 64.7 0 0 0 6.346 13.58 156.5 156.5 0 0 0 17.423 23.521 185.075 185.075 0 0 1 23.774 31.43 84.428 84.428 0 0 1 10.994 30.752 76.436 76.436 0 0 1 .414 15.373 84.7 84.7 0 0 1-25.544 54.671 89.279 89.279 0 0 1-124.177 0 84.853 84.853 0 0 1-25.094-50.142 76.309 76.309 0 0 1 .745-24.97 81.021 81.021 0 0 1 5.554-16.786 128.6 128.6 0 0 1 15.772-25.4 441.66 441.66 0 0 1 7.128-8.882l.259-.321a140.792 140.792 0 0 0 11.905-16.626 80.47 80.47 0 0 0 4.907-9.571c1.165-3.033 2.159-6.134 2.992-9.027a75.575 75.575 0 0 0 1.822-7.474c.451-2.329.916-4.441 1.211-6.817s.518-4.658.7-7.009c5.461 4.431 9.545 21.046 9.317 27.646a22.165 22.165 0 0 1-1.848 9.835 16.149 16.149 0 0 1-4.654 6.397c-1.33.574-.119-2.428 0-2.862a37.007 37.007 0 0 0 .745-13.292c-.1-.818-.238-1.6-.414-2.428l-.1-.43-.041-.2a26.183 26.183 0 0 0-.347-1.211l-.062-.186a80.971 80.971 0 0 1-8.613 19.9 146.9 146.9 0 0 1-12.48 17.407l-.269.326a1287.68 1287.68 0 0 0-5.093 6.32c-1.294 1.636-2.588 3.271-3.81 4.907zm53.517 51.167a29.988 29.988 0 0 1 13.111-3.836 17.93 17.93 0 0 1 12.583 3.583 15.029 15.029 0 0 1 2.427 2.541 14.441 14.441 0 0 1 2.687 10.021 18.493 18.493 0 0 1-4.369 10.171 19.2 19.2 0 0 1-3.245 3.037 26.525 26.525 0 0 1-6.636 3.525 28.675 28.675 0 0 1-7.583 1.636 34.862 34.862 0 0 1-12.454-1.165 30.937 30.937 0 0 1-16.683-12.04 41.011 41.011 0 0 1-7.133-20.555 47.43 47.43 0 0 1 1.755-16.874 91.138 91.138 0 0 1 21.839-34.427 146.035 146.035 0 0 0 17.511-23.049 70 70 0 0 0 9.705-35.907 62.66 62.66 0 0 0-6.211-27.165 22.774 22.774 0 0 0-6.268-7.469 114.937 114.937 0 0 1-.958 15.528 101.848 101.848 0 0 1-6.729 21.062 155.914 155.914 0 0 1-30.255 41.329 165.279 165.279 0 0 0-29.882 40.038 61.5 61.5 0 0 0-2.842 33.79 74.962 74.962 0 0 1 2.992-15.845 112.481 112.481 0 0 1 7.511-18.561 173.989 173.989 0 0 1 27.061-34.986 160.939 160.939 0 0 0 31.46-43.071 110.778 110.778 0 0 0 6.067-17.6 55.413 55.413 0 0 1 1.553 12.977 63.7 63.7 0 0 1-8.831 32.662 142.112 142.112 0 0 1-16.766 21.983 96.136 96.136 0 0 0-23.169 36.829 53.934 53.934 0 0 0-2.008 19.152 47.591 47.591 0 0 0 8.354 23.873 37.356 37.356 0 0 0 20.187 14.56 41.3 41.3 0 0 0 14.752 1.424 35.254 35.254 0 0 0 9.317-2.044 33.224 33.224 0 0 0 8.282-4.441 25.644 25.644 0 0 0 4.343-4.048 25.079 25.079 0 0 0 5.88-13.8 20.917 20.917 0 0 0-3.944-14.493 21.5 21.5 0 0 0-3.427-3.623 24.384 24.384 0 0 0-17.123-5.119 36.609 36.609 0 0 0-18.634 6.315 58.452 58.452 0 0 0-6.574 5.057c-.445.414-1.449 1.211-1.869 1.636l-.072.062a17.8 17.8 0 0 1-.606-4.7 18.634 18.634 0 0 1 4.088-11.956l.942-1.092-.347-1.413a16.6 16.6 0 0 1 .606-10.378 40.758 40.758 0 0 1 5.518-9.1l.29-.414.1-.129.062-.093.181-.238c3.2-4.281 6.858-8.494 10.534-12.7a168.188 168.188 0 0 0 15.068-19.074 12.842 12.842 0 0 0 .254-12.035q-1.211 2.562-2.785 5.316a142.224 142.224 0 0 1-16.833 22.051c-3.68 4.2-7.324 8.39-10.782 13.013a49.053 49.053 0 0 0-6.91 11.325 21.77 21.77 0 0 0-1.17 12.361 24.871 24.871 0 0 0-4.529 14.493 20.917 20.917 0 0 0 5.6 14.768 57.636 57.636 0 0 1 15.052-12.666zm-5.559-24.483a15.573 15.573 0 0 1 1.092-2.707 27.668 27.668 0 0 1 1.584-2.676q1.087-1.636 2.174-3.147a78.458 78.458 0 0 1 6.729-7.8 22.445 22.445 0 0 1-2.1 11.113 9.705 9.705 0 0 1-9.452 5.228z" fill="#fff" fill-rule="evenodd" data-name="Imen Gostar Logo FINAL"/></g></svg>