<svg xmlns="http://www.w3.org/2000/svg" width="682" height="1339"><g data-name="Group 105"><g data-name="Group 91"><g data-name="Group 87"><path fill="#025e0e" d="M-.001 0h682v1339h-682z" data-name="Group 84"/></g><g data-name="Group 94"><g data-name="Group 88"><path data-name="Path 10" d="M197.612 769.378a10.818 10.818 0 0 1-.672 3.843 8.88 8.88 0 0 1-1.932 3.087 8.886 8.886 0 0 1-3.045 2.037 10.447 10.447 0 0 1-4.011.735h-7.98V790h-3.612v-30.24h11.634a11.316 11.316 0 0 1 4.011.672 8.251 8.251 0 0 1 3.024 1.932 8.639 8.639 0 0 1 1.911 3.024 11.144 11.144 0 0 1 .672 3.99zm-3.78-.084a6.189 6.189 0 0 0-1.659-4.515 6.242 6.242 0 0 0-4.683-1.7h-7.518v12.768h7.35a6.234 6.234 0 0 0 4.83-1.827 6.707 6.707 0 0 0 1.68-4.726zM213.95 790a9.2 9.2 0 0 1-.168-1.071q-.084-.735-.168-1.911a6.473 6.473 0 0 1-2.73 2.52 9.023 9.023 0 0 1-4.242.962 8 8 0 0 1-5.418-1.743 5.876 5.876 0 0 1-2.016-4.683 5.912 5.912 0 0 1 2.037-4.7 8.019 8.019 0 0 1 5.439-1.764h6.888v-.84a4.575 4.575 0 0 0-1.386-3.717 5.725 5.725 0 0 0-3.78-1.155q-4.242 0-5.838 3.36l-2.6-1.512a8.087 8.087 0 0 1 3.4-3.57 10.837 10.837 0 0 1 5.206-1.176 9.248 9.248 0 0 1 6.048 1.89q2.31 1.89 2.31 6.048v8.946q0 1.176.105 2.373a9.262 9.262 0 0 0 .273 1.743zm-.378-9.786h-6.132a5.422 5.422 0 0 0-3.507 1.008 3.425 3.425 0 0 0-1.239 2.814 3.306 3.306 0 0 0 1.239 2.772 5.364 5.364 0 0 0 3.381.966 5.878 5.878 0 0 0 4.578-1.848 7.338 7.338 0 0 0 1.68-5.124zm15.372 7.434a5.745 5.745 0 0 0 3.045-.756 2.637 2.637 0 0 0 1.239-2.436q0-2.184-2.856-2.94l-3.108-.84q-5.46-1.428-5.46-5.712a5.532 5.532 0 0 1 .505-2.352 5.538 5.538 0 0 1 1.432-1.89 6.878 6.878 0 0 1 2.259-1.26 8.99 8.99 0 0 1 2.97-.462 8.806 8.806 0 0 1 4.949 1.344 5.151 5.151 0 0 1 2.38 3.738l-3.108.714a2.889 2.889 0 0 0-1.323-2.121 4.963 4.963 0 0 0-2.835-.777 4.376 4.376 0 0 0-2.814.84 2.709 2.709 0 0 0-1.05 2.226 2.375 2.375 0 0 0 .78 1.869 5.751 5.751 0 0 0 2.3 1.113l3.077.84a8.248 8.248 0 0 1 4.026 2.1 4.953 4.953 0 0 1 1.37 3.57 5.322 5.322 0 0 1-2.079 4.41 8.891 8.891 0 0 1-5.657 1.634 8.871 8.871 0 0 1-5.313-1.47 5.559 5.559 0 0 1-2.373-3.86l3.108-.588a3.22 3.22 0 0 0 1.407 2.226 5.335 5.335 0 0 0 3.129.84zM250.28 769a10.212 10.212 0 0 1 5.82 1.617 8.972 8.972 0 0 1 3.465 4.389l-3.065 1.218a5.76 5.76 0 0 0-2.356-3.024 6.931 6.931 0 0 0-3.864-1.092 6.252 6.252 0 0 0-4.914 2.079 8.133 8.133 0 0 0-1.848 5.607 9.592 9.592 0 0 0 .482 3.129 6.733 6.733 0 0 0 1.386 2.394 6.329 6.329 0 0 0 2.143 1.533 6.749 6.749 0 0 0 2.751.55 6.858 6.858 0 0 0 3.82-1.1 6.227 6.227 0 0 0 2.436-2.982l3.026 1.182a9.151 9.151 0 0 1-3.654 4.45 10.447 10.447 0 0 1-5.67 1.55 10.948 10.948 0 0 1-4.2-.777 9.089 9.089 0 0 1-3.213-2.184 9.922 9.922 0 0 1-2.058-3.381 12.433 12.433 0 0 1-.735-4.368 12.609 12.609 0 0 1 .735-4.389 9.939 9.939 0 0 1 2.079-3.423 9.165 9.165 0 0 1 3.234-2.2 10.948 10.948 0 0 1 4.2-.778zm23.02 0a10.607 10.607 0 0 1 4.221.819 9.68 9.68 0 0 1 3.276 2.268 10.306 10.306 0 0 1 2.121 3.423 11.76 11.76 0 0 1 .756 4.242 11.76 11.76 0 0 1-.756 4.242 10.306 10.306 0 0 1-2.121 3.423 9.68 9.68 0 0 1-3.28 2.268 10.607 10.607 0 0 1-4.217.815 10.607 10.607 0 0 1-4.221-.819 9.68 9.68 0 0 1-3.279-2.264 10.306 10.306 0 0 1-2.121-3.423 11.76 11.76 0 0 1-.756-4.242 11.76 11.76 0 0 1 .756-4.242 10.306 10.306 0 0 1 2.121-3.423 9.68 9.68 0 0 1 3.276-2.268A10.607 10.607 0 0 1 273.3 769zm-.021 18.4a6.369 6.369 0 0 0 5.013-2.142 7.993 7.993 0 0 0 1.9-5.5 7.933 7.933 0 0 0-1.9-5.46 6.313 6.313 0 0 0-5.013-2.184 6.266 6.266 0 0 0-4.979 2.178 7.933 7.933 0 0 0-1.9 5.46 7.993 7.993 0 0 0 1.9 5.5 6.321 6.321 0 0 0 4.975 2.148zm43.949-5.17h-13.314L301.1 790h-3.654l11.046-30.24h4.158L323.78 790H320zm-1.092-3.024-5.46-15.372-5.628 15.372zm22.092 11.294a9.684 9.684 0 0 1-4.428-1 7.008 7.008 0 0 1-3.045-2.9v12.43h-3.276v-29.484h2.982l.21 3.444a6.8 6.8 0 0 1 2.919-2.94 9.573 9.573 0 0 1 4.596-1.05 10.1 10.1 0 0 1 4.032.777 8.64 8.64 0 0 1 3.066 2.184 9.9 9.9 0 0 1 1.953 3.4 13.3 13.3 0 0 1 .693 4.389 13.3 13.3 0 0 1-.693 4.389 9.718 9.718 0 0 1-1.974 3.4 8.9 8.9 0 0 1-3.063 2.188 9.842 9.842 0 0 1-3.972.773zm6.216-10.748a8.206 8.206 0 0 0-1.806-5.544 6.1 6.1 0 0 0-4.872-2.1 6.193 6.193 0 0 0-4.956 2.1 8.206 8.206 0 0 0-1.81 5.544 9.848 9.848 0 0 0 .462 3.087 6.873 6.873 0 0 0 1.348 2.415 6.174 6.174 0 0 0 2.142 1.575 6.782 6.782 0 0 0 2.814.571 6.534 6.534 0 0 0 2.751-.571 6.226 6.226 0 0 0 2.121-1.575 6.873 6.873 0 0 0 1.344-2.415 9.848 9.848 0 0 0 .462-3.087zm18.984 10.748a9.684 9.684 0 0 1-4.428-1 7.008 7.008 0 0 1-3.045-2.9v12.43h-3.279v-29.484h2.982l.21 3.444a6.8 6.8 0 0 1 2.919-2.94 9.573 9.573 0 0 1 4.6-1.05 10.1 10.1 0 0 1 4.032.777 8.64 8.64 0 0 1 3.066 2.184 9.9 9.9 0 0 1 1.953 3.4 13.3 13.3 0 0 1 .693 4.389 13.3 13.3 0 0 1-.693 4.389 9.718 9.718 0 0 1-1.974 3.4 8.9 8.9 0 0 1-3.064 2.188 9.842 9.842 0 0 1-3.972.773zm6.216-10.752a8.206 8.206 0 0 0-1.806-5.544 6.1 6.1 0 0 0-4.872-2.1 6.193 6.193 0 0 0-4.956 2.1 8.206 8.206 0 0 0-1.81 5.548 9.848 9.848 0 0 0 .462 3.087 6.873 6.873 0 0 0 1.348 2.415 6.174 6.174 0 0 0 2.142 1.575 6.782 6.782 0 0 0 2.814.567 6.534 6.534 0 0 0 2.751-.567 6.226 6.226 0 0 0 2.121-1.575 6.873 6.873 0 0 0 1.344-2.415 9.848 9.848 0 0 0 .462-3.087zm8.232-20.538h3.486V790h-3.486zm8.862 2.99a2.551 2.551 0 0 1 .735-1.848 2.445 2.445 0 0 1 1.827-.756 2.514 2.514 0 0 1 1.848.756 2.514 2.514 0 0 1 .752 1.848 2.445 2.445 0 0 1-.756 1.827 2.551 2.551 0 0 1-1.848.735 2.48 2.48 0 0 1-1.827-.735 2.48 2.48 0 0 1-.731-1.827zm4.326 7.35V790h-3.486v-20.454zm14.994-.55a10.212 10.212 0 0 1 5.817 1.617 8.972 8.972 0 0 1 3.465 4.389l-3.066 1.218a5.76 5.76 0 0 0-2.352-3.024 6.931 6.931 0 0 0-3.864-1.092 6.252 6.252 0 0 0-4.914 2.079 8.133 8.133 0 0 0-1.844 5.607 9.592 9.592 0 0 0 .483 3.129 6.733 6.733 0 0 0 1.386 2.394 6.329 6.329 0 0 0 2.138 1.533 6.749 6.749 0 0 0 2.751.546 6.858 6.858 0 0 0 3.822-1.096 6.227 6.227 0 0 0 2.436-2.982l3.024 1.182a9.151 9.151 0 0 1-3.654 4.45 10.447 10.447 0 0 1-5.67 1.55 10.948 10.948 0 0 1-4.2-.777 9.09 9.09 0 0 1-3.216-2.18 9.922 9.922 0 0 1-2.058-3.381 12.433 12.433 0 0 1-.735-4.368 12.608 12.608 0 0 1 .735-4.389 9.939 9.939 0 0 1 2.079-3.423 9.165 9.165 0 0 1 3.234-2.2 10.948 10.948 0 0 1 4.203-.782zm27.342 21a9.2 9.2 0 0 1-.168-1.071q-.084-.735-.168-1.911a6.473 6.473 0 0 1-2.73 2.52 9.023 9.023 0 0 1-4.242.962 8 8 0 0 1-5.418-1.743 5.876 5.876 0 0 1-2.016-4.683 5.912 5.912 0 0 1 2.037-4.7 8.019 8.019 0 0 1 5.439-1.764h6.888v-.84a4.575 4.575 0 0 0-1.386-3.717 5.725 5.725 0 0 0-3.78-1.155q-4.242 0-5.838 3.36l-2.6-1.512a8.087 8.087 0 0 1 3.4-3.57 10.837 10.837 0 0 1 5.206-1.176 9.248 9.248 0 0 1 6.048 1.89q2.31 1.89 2.31 6.048v8.946q0 1.176.105 2.373a9.262 9.262 0 0 0 .273 1.743zm-.378-9.786h-6.132a5.422 5.422 0 0 0-3.507 1.008 3.425 3.425 0 0 0-1.239 2.814 3.307 3.307 0 0 0 1.239 2.772 5.364 5.364 0 0 0 3.381.966 5.878 5.878 0 0 0 4.578-1.848 7.338 7.338 0 0 0 1.68-5.126zM459.1 762.2a2.48 2.48 0 0 1-.735 1.827 2.48 2.48 0 0 1-1.827.735 2.551 2.551 0 0 1-1.848-.735 2.445 2.445 0 0 1-.756-1.827 2.514 2.514 0 0 1 .756-1.848 2.514 2.514 0 0 1 1.848-.756 2.445 2.445 0 0 1 1.827.756 2.551 2.551 0 0 1 .735 1.848zm-.836 27.8h-3.486v-17.6h-7.812V790h-3.486v-17.6h-4.032v-2.856h4.032v-6.424h3.486v6.426h11.3zm15.162-21a10.607 10.607 0 0 1 4.221.819 9.68 9.68 0 0 1 3.276 2.268 10.306 10.306 0 0 1 2.121 3.423 11.76 11.76 0 0 1 .756 4.242 11.76 11.76 0 0 1-.756 4.242 10.305 10.305 0 0 1-2.121 3.423 9.68 9.68 0 0 1-3.276 2.268 10.842 10.842 0 0 1-4.221.815 10.607 10.607 0 0 1-4.221-.819 9.68 9.68 0 0 1-3.276-2.268 10.306 10.306 0 0 1-2.121-3.423 11.76 11.76 0 0 1-.756-4.242 11.76 11.76 0 0 1 .756-4.242 10.306 10.306 0 0 1 2.121-3.423 9.68 9.68 0 0 1 3.276-2.268 10.607 10.607 0 0 1 4.221-.815zm-.021 18.4a6.369 6.369 0 0 0 5.013-2.142 7.993 7.993 0 0 0 1.9-5.5 7.933 7.933 0 0 0-1.9-5.46 6.313 6.313 0 0 0-5.013-2.184 6.266 6.266 0 0 0-4.971 2.184 7.933 7.933 0 0 0-1.9 5.46 7.993 7.993 0 0 0 1.9 5.5 6.321 6.321 0 0 0 4.971 2.142zm33.243-9.912V790h-3.486v-12.04q0-3.2-1.548-4.5a5.582 5.582 0 0 0-3.724-1.347 5.745 5.745 0 0 0-4.289 1.684 6.326 6.326 0 0 0-1.653 4.631v11.53h-3.486v-20.412h3.276l.125 2.73a6.418 6.418 0 0 1 2.688-2.394 8.9 8.9 0 0 1 4.032-.882 8.114 8.114 0 0 1 5.838 2.121q2.227 2.121 2.227 6.363z" fill="#fff"/></g><g fill="#fff"><path data-name="Path 76" d="M314.417 617.586c-3.626-16.164-28.259-34.781-28.259-34.781s-14.32 27.355-10.695 43.52a19.961 19.961 0 0 0 38.953-8.738z"/><path data-name="Path 73" d="M346.974 629.962c-16.494-1.546-41.812 16.128-41.812 16.128s21.592 22.073 38.085 23.62a19.961 19.961 0 1 0 3.727-39.747z"/><path data-name="Path 72" d="M395.044 592.41a19.96 19.96 0 0 0-26.238 10.412c-6.568 15.209 2.418 44.749 2.418 44.749s27.665-13.714 34.233-28.923a19.961 19.961 0 0 0-10.413-26.238z"/><path data-name="Path 74" d="M349.74 573.672c12.435 10.946 43.307 11.529 43.307 11.529s-4.494-30.548-16.928-41.495a19.961 19.961 0 0 0-26.379 29.966z"/><path data-name="Path 75" d="M316.125 582.797c14.253-8.439 24.348-37.623 24.348-37.623s-30.442-5.167-44.695 3.276a19.961 19.961 0 0 0 20.347 34.347z"/></g></g></g></g></svg>